<?xml version="1.0" standalone="no"?>
<!DOCTYPE svg PUBLIC "-//W3C//DTD SVG 20010904//EN"
 "http://www.w3.org/TR/2001/REC-SVG-20010904/DTD/svg10.dtd">
<svg version="1.0" xmlns="http://www.w3.org/2000/svg"
 width="768.000000pt" height="768.000000pt" viewBox="0 0 768.000000 768.000000"
 preserveAspectRatio="xMidYMid meet">

<g transform="translate(0.000000,768.000000) scale(0.100000,-0.100000)"
fill="#000000" stroke="none">
<path d="M1529 4635 c-309 -49 -563 -168 -730 -342 -136 -142 -179 -247 -179
-431 0 -140 14 -205 72 -322 76 -156 260 -314 460 -395 223 -91 408 -120 701
-112 220 6 326 23 489 77 234 78 434 225 531 391 78 133 113 317 88 466 -56
328 -420 593 -916 668 -123 18 -397 18 -516 0z m604 -64 c181 -40 385 -124
486 -200 l25 -19 -70 -21 c-152 -47 -285 -47 -412 0 -215 81 -223 83 -322 83
-105 -1 -186 -23 -245 -69 -19 -14 -43 -25 -55 -25 -12 0 -58 -9 -103 -21 -60
-16 -99 -20 -147 -16 -68 6 -295 68 -312 85 -19 19 166 114 312 160 178 58
290 71 540 67 162 -2 226 -8 303 -24z m-184 -216 c35 -9 94 -29 131 -45 104
-46 174 -61 285 -61 103 0 178 15 273 53 l53 21 58 -57 c32 -32 75 -85 95
-119 36 -62 74 -162 65 -172 -3 -3 -68 -23 -145 -44 -76 -22 -185 -58 -242
-80 l-103 -41 -162 141 c-213 186 -305 259 -344 276 -76 31 -148 10 -258 -77
-75 -59 -115 -80 -154 -80 -36 0 -81 16 -81 29 0 17 149 168 202 204 92 63
204 81 327 52z m-780 -101 c107 -28 187 -30 257 -9 27 8 55 15 63 15 7 0 -17
-32 -53 -71 -77 -81 -80 -100 -26 -137 30 -20 45 -23 100 -20 54 3 72 9 110
36 145 105 164 115 210 120 62 6 85 -7 238 -135 279 -233 352 -302 352 -331 0
-33 -8 -45 -37 -61 -41 -21 -62 -11 -162 79 -56 50 -105 90 -111 90 -26 0 -3
-32 80 -115 56 -56 90 -97 90 -111 0 -32 -45 -68 -85 -68 -29 0 -46 11 -110
74 -55 53 -79 70 -87 62 -8 -8 8 -31 56 -84 36 -40 66 -80 66 -89 0 -21 -28
-46 -62 -54 -23 -6 -36 2 -92 54 -56 52 -96 75 -96 56 0 -3 22 -30 50 -60 27
-30 50 -60 50 -65 0 -22 -52 -31 -94 -18 -40 13 -41 14 -38 54 6 78 -51 154
-115 154 -18 0 -23 6 -23 25 0 65 -58 115 -131 115 -18 0 -43 10 -60 25 -37
31 -88 40 -134 25 -30 -10 -39 -9 -53 3 -28 24 -68 28 -111 11 -38 -15 -40
-15 -102 17 -83 41 -146 63 -303 104 -70 19 -130 36 -132 38 -3 2 6 34 19 70
28 76 95 173 164 239 l50 46 84 -30 c46 -16 126 -40 178 -54z m-189 -412 c31
-11 79 -31 108 -46 50 -25 52 -28 52 -67 0 -58 22 -94 70 -113 22 -9 46 -16
53 -16 6 0 19 -15 27 -32 18 -35 71 -68 112 -68 17 0 31 -7 38 -20 15 -27 62
-50 104 -50 25 0 38 -6 46 -21 29 -54 127 -76 185 -41 26 16 34 17 60 6 48
-21 128 -17 158 6 14 11 40 20 59 20 40 0 95 32 109 64 7 14 17 22 28 19 30
-7 105 40 126 79 11 21 26 38 34 38 8 0 34 9 57 20 48 24 67 59 62 117 l-3 38
89 33 c100 37 321 102 348 102 23 0 24 -40 3 -129 -42 -178 -201 -354 -421
-464 -76 -38 -244 -94 -352 -118 -140 -30 -427 -37 -579 -15 -294 43 -520 140
-684 294 -134 126 -199 252 -199 387 l0 63 128 -33 c70 -18 152 -42 182 -53z
m335 -87 l20 -30 24 23 c44 41 141 22 141 -28 0 -26 11 -31 34 -15 62 44 136
-16 120 -99 l-6 -37 37 7 c95 17 152 -97 78 -156 -40 -32 -95 -27 -127 11 -14
17 -26 39 -26 50 0 23 -4 23 -35 3 -21 -14 -30 -14 -56 -4 -33 14 -64 53 -55
69 4 7 -11 8 -43 4 -44 -5 -52 -3 -75 20 -18 18 -26 37 -26 62 0 39 0 39 -34
24 -35 -16 -73 -3 -91 31 -19 38 -19 42 6 74 30 38 85 34 114 -9z"/>
<path d="M6403 4626 c-26 -23 -28 -30 -32 -111 l-3 -87 -22 20 c-35 32 -62 42
-116 42 -91 0 -149 -41 -191 -135 -26 -59 -31 -187 -10 -249 32 -92 119 -146
235 -146 103 0 175 37 216 110 25 44 25 49 28 313 l3 267 -40 0 c-28 0 -48 -7
-68 -24z m-93 -261 c78 -40 90 -205 20 -267 -38 -35 -95 -38 -133 -8 -49 38
-62 153 -27 225 30 62 81 80 140 50z"/>
<path d="M3502 4488 c-62 -10 -108 -43 -140 -96 -26 -46 -27 -51 -30 -234 l-4
-188 61 0 61 0 0 155 c0 166 10 214 48 234 35 19 81 13 107 -14 25 -24 25 -27
25 -200 l0 -175 65 0 65 0 0 173 c1 180 3 192 47 215 34 19 69 14 100 -12 l28
-24 3 -176 3 -176 60 0 59 0 0 174 c0 191 -9 238 -58 289 -35 37 -52 46 -108
56 -58 11 -135 -7 -169 -39 l-24 -22 -34 26 c-41 31 -106 45 -165 34z"/>
<path d="M5704 4489 c-89 -11 -142 -58 -159 -136 l-7 -33 66 0 c39 0 66 4 66
10 0 6 11 22 25 35 45 46 145 25 145 -30 0 -32 -19 -40 -115 -55 -147 -22
-187 -54 -193 -154 -5 -83 14 -121 75 -148 65 -29 198 -23 268 12 84 43 90 56
93 244 3 163 3 163 -23 194 -43 51 -138 75 -241 61z m125 -371 c-14 -35 -55
-58 -103 -58 -42 0 -66 22 -66 60 0 37 21 57 73 70 23 6 56 14 72 18 29 8 30
6 33 -26 2 -19 -2 -48 -9 -64z"/>
<path d="M6735 4491 c-111 -27 -185 -130 -185 -259 0 -73 12 -116 49 -174 39
-61 94 -89 183 -96 124 -9 203 32 252 130 22 43 26 66 26 133 0 71 -4 90 -30
142 -19 39 -44 70 -68 86 -58 41 -151 56 -227 38z m136 -124 c34 -21 53 -70
53 -137 -1 -130 -78 -195 -174 -145 -47 24 -63 66 -58 156 3 70 6 81 32 108
16 16 38 32 50 34 27 6 75 -2 97 -16z"/>
<path d="M4239 4462 c-65 -34 -104 -91 -120 -176 -35 -191 68 -326 250 -326
87 0 130 17 184 70 67 67 64 80 -19 80 -51 0 -72 -5 -91 -20 -18 -14 -41 -20
-75 -20 -43 0 -54 4 -84 34 -21 21 -34 44 -34 60 l0 26 185 0 186 0 -7 63
c-17 161 -98 237 -250 237 -59 0 -81 -5 -125 -28z m200 -109 c16 -16 32 -38
36 -50 6 -23 6 -23 -110 -23 -103 0 -116 2 -111 16 3 9 6 19 6 23 0 5 12 20
26 35 39 38 112 37 153 -1z"/>
<path d="M4850 4481 c-74 -23 -117 -61 -149 -131 -18 -39 -21 -66 -21 -212 l0
-168 64 0 64 0 4 165 c3 163 3 165 30 191 19 20 39 28 77 32 l51 5 0 63 0 64
-47 -1 c-27 0 -59 -4 -73 -8z"/>
<path d="M5125 4466 c-60 -28 -77 -46 -107 -111 -29 -65 -31 -188 -5 -257 22
-56 81 -113 134 -127 50 -14 136 -14 184 0 52 16 108 64 130 113 32 71 29 76
-50 76 -65 0 -69 -1 -75 -25 -17 -68 -101 -87 -158 -36 -29 26 -33 35 -36 99
-7 121 30 182 110 182 29 0 45 -7 63 -26 14 -15 25 -33 25 -40 0 -11 18 -14
70 -14 66 0 70 1 70 23 0 12 -10 43 -22 67 -18 35 -35 51 -77 73 -74 37 -181
38 -256 3z"/>
<path d="M3513 3760 c-54 -11 -80 -25 -121 -63 -55 -52 -62 -97 -62 -379 l0
-248 44 0 c28 0 52 7 67 19 22 17 24 29 28 111 l3 92 22 -20 c11 -11 40 -26
63 -32 92 -27 190 17 234 107 32 65 39 203 14 270 -46 120 -150 171 -292 143z
m130 -134 c47 -44 60 -141 28 -213 -22 -48 -45 -63 -98 -63 -71 1 -105 49
-105 150 0 103 33 149 108 150 30 0 48 -7 67 -24z"/>
<path d="M4507 3756 c-96 -27 -139 -95 -145 -234 -3 -72 -1 -103 13 -139 53
-139 204 -192 305 -107 33 28 35 24 19 -41 -22 -85 -94 -117 -162 -71 -31 21
-49 26 -102 26 -36 0 -65 -2 -65 -5 0 -3 9 -23 20 -45 22 -44 68 -82 119 -99
47 -15 152 -14 193 3 50 21 104 86 122 147 19 63 22 330 5 409 -27 127 -174
198 -322 156z m158 -132 c59 -64 50 -229 -14 -264 -11 -5 -39 -10 -64 -10 -64
0 -90 31 -95 115 -8 130 22 185 103 185 37 0 51 -5 70 -26z"/>
<path d="M5051 3756 c-51 -17 -104 -64 -134 -121 -32 -58 -32 -212 0 -271 52
-97 140 -142 260 -131 145 14 223 107 223 267 0 110 -40 192 -118 237 -54 32
-163 41 -231 19z m144 -110 c47 -20 69 -66 69 -146 0 -76 -21 -123 -64 -145
-92 -47 -171 16 -172 139 0 79 23 133 66 152 40 17 59 17 101 0z"/>
<path d="M3970 3738 c-51 -27 -78 -60 -90 -111 l-8 -37 64 0 c60 0 64 2 78 29
28 54 145 54 159 0 10 -38 -18 -56 -108 -69 -156 -22 -210 -70 -202 -183 3
-46 9 -63 32 -87 15 -16 44 -35 63 -41 53 -17 198 -6 247 19 84 43 104 90 105
254 0 155 -13 191 -84 224 -71 33 -192 34 -256 2z m200 -299 c0 -43 -5 -55
-29 -80 -54 -54 -151 -33 -151 32 0 37 38 65 98 74 26 3 54 10 62 16 8 5 16 9
18 9 1 0 2 -23 2 -51z"/>
</g>
</svg>
