<svg id="visual" viewBox="0 0 900 600" width="900" height="600" xmlns="http://www.w3.org/2000/svg" xmlns:xlink="http://www.w3.org/1999/xlink" version="1.1"><rect x="0" y="0" width="900" height="600" fill="#EA4335"></rect><path d="M290 0L306.3 20C322.7 40 355.3 80 339.2 120C323 160 258 200 222.5 240C187 280 181 320 191 360C201 400 227 440 258.5 480C290 520 327 560 345.5 580L364 600L0 600L0 580C0 560 0 520 0 480C0 440 0 400 0 360C0 320 0 280 0 240C0 200 0 160 0 120C0 80 0 40 0 20L0 0Z" fill="#1A2C5E" stroke-linecap="round" stroke-linejoin="miter"></path></svg>